<svg width="40" height="40" viewBox="0 0 40 40" fill="none" xmlns="http://www.w3.org/2000/svg">
<path d="M32 20C32 13.3726 26.6274 8 20 8C13.3726 8 8 13.3726 8 20C8 25.9895 12.3882 30.954 18.125 31.8542V23.4688H15.0781V20H18.125V17.3563C18.125 14.3488 19.9166 12.6875 22.6576 12.6875C23.9701 12.6875 25.3438 12.9219 25.3438 12.9219V15.875H23.8306C22.34 15.875 21.875 16.8001 21.875 17.75V20H25.2031L24.6711 23.4688H21.875V31.8542C27.6118 30.954 32 25.9895 32 20Z" fill="white"/>
<path d="M24.6711 23.4688L25.2031 20H21.875V17.75C21.875 16.801 22.34 15.875 23.8306 15.875H25.3438V12.9219C25.3438 12.9219 23.9705 12.6875 22.6576 12.6875C19.9166 12.6875 18.125 14.3488 18.125 17.3563V20H15.0781V23.4688H18.125V31.8542C19.3674 32.0486 20.6326 32.0486 21.875 31.8542V23.4688H24.6711Z" fill="#222222"/>
<rect x="0.6" y="0.6" width="38.8" height="38.8" rx="19.4" stroke="white" stroke-width="1.2"/>
</svg>
