<svg width="295" height="48" viewBox="0 0 295 48" fill="none" xmlns="http://www.w3.org/2000/svg">
<g clip-path="url(#clip0_4122_65082)">
<path d="M13.3969 0V14.0083H23.3775V19.585H13.3969V36.3153C13.3969 39.9004 15.3395 41.892 18.6217 41.892H23.3775V47.4689H18.0858C11.2534 47.4689 6.89941 43.3527 6.89941 36.5145V19.585H0V14.0083H6.89941V0H13.3969Z" fill="white"/>
<path d="M57.7404 36.5815C56.5347 43.4858 50.4391 48.0005 42.133 48.0005C31.6836 48.0005 25.186 39.8346 25.186 30.5398C25.186 21.1789 31.0806 13.4777 41.4633 13.4777C51.9127 13.4777 57.4725 20.8469 57.4725 29.3448C57.4725 30.208 57.4055 31.2703 57.3386 31.8677H31.5495C32.0853 38.1746 36.2384 42.4901 42.133 42.4901C47.09 42.4901 50.3051 40.3656 51.2428 36.5815H57.7404ZM31.7505 27.1541H50.908C50.506 22.0421 47.0228 18.6561 41.4633 18.6561C36.1715 18.6561 32.7552 21.5772 31.7505 27.1541Z" fill="white"/>
<path d="M90.5635 25.8925V47.4694H84.066V42.0253C82.4583 45.6105 78.1712 48.0005 73.0805 48.0005C66.181 48.0005 61.626 43.8842 61.626 37.9091C61.626 31.4693 66.784 27.4859 74.7551 27.4859H81.7884C83.3292 27.4859 84.066 26.6893 84.066 25.4944C84.066 21.4445 81.1186 18.6561 75.8939 18.6561C71.205 18.6561 67.7887 21.5772 67.5877 24.9631H61.5591C62.0949 18.3905 68.1235 13.4777 76.0946 13.4777C84.8028 13.4777 90.5635 18.4569 90.5635 25.8925ZM84.066 32.7971V32.0005H75.3578C70.9369 32.0005 68.0566 34.2576 68.0566 37.7765C68.0566 40.8303 70.602 42.8885 74.3532 42.8885C80.5156 42.8885 84.066 38.9714 84.066 32.7971Z" fill="white"/>
<path d="M95.1177 30.739C95.1177 21.5109 101.213 13.4777 111.864 13.4777C119.768 13.4777 126.601 18.125 127.538 25.6933H121.041C120.438 21.9092 116.553 19.1208 111.998 19.1208C105.232 19.1208 101.887 24.2992 101.887 30.739C101.887 37.1789 105.303 42.3574 111.998 42.3574C116.62 42.3574 120.036 39.9672 121.108 36.1831H127.538C126.467 43.2203 120.438 48.0005 111.864 48.0005C101.213 48.0005 95.1177 39.9672 95.1177 30.739Z" fill="white"/>
<path d="M131.688 0H138.186V19.917C139.998 15.7344 144.017 13.4772 149.041 13.4772C156.677 13.4772 161.634 18.9212 161.634 26.8879V47.4689H155.136V28.1494C155.136 22.8382 151.988 19.2531 147.232 19.2531C141.941 19.2531 138.189 23.5021 138.189 29.3444V47.4689H131.692L131.688 0Z" fill="white"/>
<path d="M207.652 25.8925V47.4694H201.154V42.0253C199.547 45.6105 195.26 48.0005 190.169 48.0005C183.269 48.0005 178.714 43.8842 178.714 37.9091C178.714 31.4693 183.872 27.4859 191.843 27.4859H198.877C200.418 27.4859 201.154 26.6893 201.154 25.4944C201.154 21.4445 198.207 18.6561 192.982 18.6561C188.293 18.6561 184.877 21.5772 184.676 24.9631H178.647C179.183 18.3905 185.212 13.4777 193.183 13.4777C201.888 13.4777 207.652 18.4569 207.652 25.8925ZM201.154 32.7971V32.0005H192.446C188.025 32.0005 185.145 34.2576 185.145 37.7765C185.145 40.8303 187.69 42.8885 191.442 42.8885C197.604 42.8885 201.151 38.9714 201.151 32.7971H201.154Z" fill="white"/>
<path d="M219.974 42.4896V47.4689H213.476V0H219.974V18.9212C221.917 15.6681 226.002 13.4772 230.625 13.4772C240.941 13.4772 246.768 20.7801 246.768 30.7385C246.768 40.697 240.941 48 230.557 48C226.073 48 221.917 45.809 219.974 42.4896ZM240.203 30.7385C240.203 23.7676 236.049 19.1203 229.819 19.1203C223.524 19.1203 219.438 23.7676 219.438 30.7385C219.438 37.7095 223.524 42.3567 229.819 42.3567C236.049 42.3567 240.203 37.7095 240.203 30.7385Z" fill="white"/>
<path d="M251.192 0H257.689V47.4689H251.192V0Z" fill="white"/>
<path d="M294.859 36.5815C293.654 43.4858 287.559 48.0005 279.255 48.0005C268.806 48.0005 262.307 39.8346 262.307 30.5398C262.307 21.1789 268.202 13.4777 278.586 13.4777C289.032 13.4777 294.592 20.8469 294.592 29.3448C294.592 30.208 294.524 31.2703 294.458 31.8677H268.669C269.204 38.1746 273.358 42.4901 279.251 42.4901C284.206 42.4901 287.42 40.3656 288.358 36.5815H294.859ZM268.872 27.1541H288.034C287.636 22.0421 284.149 18.6561 278.593 18.6561C273.296 18.6561 269.878 21.5772 268.872 27.1541Z" fill="white"/>
<path d="M173.687 17.7422V24.9788H166.52V17.7422H173.687ZM173.687 40.3147V47.4683H166.52V40.2982L173.687 40.3147Z" fill="white"/>
</g>
<defs>
<clipPath id="clip0_4122_65082">
<rect width="294.982" height="48" fill="white"/>
</clipPath>
</defs>
</svg>
