<svg width="40" height="40" viewBox="0 0 40 40" fill="none" xmlns="http://www.w3.org/2000/svg">
<g clip-path="url(#clip0_4123_65138)">
<path d="M20 32C26.6274 32 32 26.6274 32 20C32 13.3726 26.6274 8 20 8C13.3726 8 8 13.3726 8 20C8 26.6274 13.3726 32 20 32Z" fill="#222222"/>
<path d="M20 8C13.3728 8 8 13.3728 8 20C8 25.0864 11.1605 29.4321 15.6247 31.1802C15.516 30.2321 15.4272 28.7704 15.6642 27.7333C15.8815 26.7951 17.0667 21.7679 17.0667 21.7679C17.0667 21.7679 16.7111 21.0469 16.7111 19.9901C16.7111 18.321 17.679 17.0765 18.884 17.0765C19.9111 17.0765 20.4049 17.8469 20.4049 18.7654C20.4049 19.7926 19.7531 21.3333 19.4074 22.7654C19.121 23.9605 20.0099 24.9383 21.1852 24.9383C23.3185 24.9383 24.958 22.6864 24.958 19.4469C24.958 16.5728 22.8938 14.5679 19.9407 14.5679C16.5235 14.5679 14.5185 17.1259 14.5185 19.7728C14.5185 20.8 14.9136 21.9062 15.4074 22.5086C15.5062 22.6272 15.516 22.7358 15.4864 22.8543C15.3975 23.2296 15.1901 24.0494 15.1506 24.2173C15.1012 24.4346 14.9728 24.484 14.7457 24.3753C13.2444 23.6741 12.3062 21.4914 12.3062 19.7235C12.3062 15.9407 15.0519 12.4642 20.237 12.4642C24.3951 12.4642 27.6346 15.4272 27.6346 19.3975C27.6346 23.5358 25.0272 26.8642 21.4123 26.8642C20.1975 26.8642 19.0519 26.2321 18.6667 25.4815C18.6667 25.4815 18.0642 27.7728 17.916 28.3358C17.6494 29.3827 16.9185 30.6864 16.4247 31.4864C17.5506 31.8321 18.7358 32.0198 19.9802 32.0198C26.6074 32.0198 31.9802 26.6469 31.9802 20.0198C32 13.3728 26.6272 8 20 8Z" fill="white"/>
</g>
<rect x="0.6" y="0.6" width="38.8" height="38.8" rx="19.4" stroke="white" stroke-width="1.2"/>
<defs>
<clipPath id="clip0_4123_65138">
<rect width="24" height="24" fill="white" transform="translate(8 8)"/>
</clipPath>
</defs>
</svg>
