<?xml version="1.0" encoding="utf-8"?>
<!-- Generator: Adobe Illustrator 26.5.0, SVG Export Plug-In . SVG Version: 6.00 Build 0)  -->
<svg version="1.1" id="Layer_1" xmlns="http://www.w3.org/2000/svg" xmlns:xlink="http://www.w3.org/1999/xlink" x="0px" y="0px"
	 viewBox="0 0 40 40" style="enable-background:new 0 0 40 40;" xml:space="preserve">
<style type="text/css">
	.st0{fill:none;stroke:#FFFFFF;stroke-width:1.2;}
	.st1{fill:#FFFFFF;}
</style>
<path class="st0" d="M20,0.6L20,0.6c10.7,0,19.4,8.7,19.4,19.4v0c0,10.7-8.7,19.4-19.4,19.4h0C9.3,39.4,0.6,30.7,0.6,20v0
	C0.6,9.3,9.3,0.6,20,0.6z"/>
<g>
	<path class="st1" d="M31.8,13.4c-1.5,0-2.8-0.5-3.9-1.3c-1.2-0.9-2.1-2.3-2.4-3.9c-0.1-0.4-0.1-0.8-0.1-1.2h-4.2v11.4l0,6.2
		c0,1.7-1.1,3.1-2.6,3.6c-0.4,0.1-0.9,0.2-1.4,0.2c-0.6,0-1.2-0.2-1.7-0.5c-1.1-0.6-1.8-1.8-1.8-3.2c0-2.1,1.7-3.8,3.8-3.8
		c0.4,0,0.8,0.1,1.2,0.2V18v-1.1c-0.4-0.1-0.8-0.1-1.2-0.1c-2.3,0-4.5,1-6,2.7c-1.2,1.3-1.9,3-2,4.7c-0.1,2.3,0.7,4.5,2.3,6.1
		c0.2,0.2,0.5,0.5,0.8,0.7c1.4,1.1,3.1,1.7,4.9,1.7c0.4,0,0.8,0,1.2-0.1c1.7-0.2,3.2-1,4.4-2.2c1.5-1.5,2.3-3.5,2.3-5.5l0-9.3
		c0.7,0.6,1.5,1,2.3,1.4c1.3,0.6,2.7,0.8,4.1,0.8v-3L31.8,13.4C31.8,13.4,31.8,13.4,31.8,13.4L31.8,13.4z"/>
</g>
</svg>
