<svg width="40" height="40" viewBox="0 0 40 40" fill="none" xmlns="http://www.w3.org/2000/svg">
<path d="M15.5475 29.7508C24.6042 29.7508 29.5578 22.2474 29.5578 15.7405C29.5578 15.5274 29.5578 15.3152 29.5434 15.104C30.507 14.407 31.3389 13.5439 32 12.5552C31.1014 12.9536 30.148 13.2148 29.1718 13.33C30.1998 12.7146 30.9692 11.7467 31.3366 10.6064C30.3701 11.18 29.3126 11.5843 28.2099 11.8016C27.4675 11.0122 26.4856 10.4895 25.4162 10.3143C24.3468 10.1392 23.2494 10.3214 22.294 10.8327C21.3385 11.344 20.5782 12.156 20.1307 13.143C19.6833 14.13 19.5735 15.2369 19.8186 16.2925C17.8609 16.1943 15.9458 15.6856 14.1975 14.7992C12.4492 13.9129 10.9068 12.6689 9.6704 11.1479C9.04073 12.2319 8.84787 13.5151 9.1311 14.7363C9.41433 15.9575 10.1523 17.0248 11.1949 17.721C10.4112 17.698 9.64465 17.4866 8.96 17.1047V17.1671C8.96031 18.3039 9.35385 19.4057 10.0739 20.2854C10.7939 21.1652 11.7961 21.7689 12.9104 21.994C12.1855 22.1917 11.4249 22.2206 10.687 22.0784C11.0018 23.0568 11.6144 23.9123 12.4392 24.5254C13.264 25.1385 14.2598 25.4785 15.2874 25.498C14.2664 26.3004 13.0973 26.8938 11.8469 27.244C10.5964 27.5942 9.28921 27.6944 8 27.5389C10.2518 28.9839 12.8719 29.7504 15.5475 29.7469" fill="white"/>
<rect x="0.6" y="0.6" width="38.8" height="38.8" rx="19.4" stroke="white" stroke-width="1.2"/>
</svg>
