<svg width="40" height="40" viewBox="0 0 40 40" fill="none" xmlns="http://www.w3.org/2000/svg">
<path d="M8.53701 14.9509C8.64412 13.3019 9.96987 12.0096 11.6203 11.9278C14.0102 11.8094 17.4261 11.6666 19.9999 11.6666C22.5737 11.6666 25.9896 11.8094 28.3795 11.9278C30.03 12.0096 31.3557 13.3019 31.4628 14.9509C31.5654 16.5307 31.6666 18.4747 31.6666 20C31.6666 21.5252 31.5654 23.4692 31.4628 25.049C31.3557 26.698 30.03 27.9903 28.3795 28.0721C25.9896 28.1905 22.5737 28.3333 19.9999 28.3333C17.4261 28.3333 14.0102 28.1905 11.6203 28.0721C9.96988 27.9903 8.64412 26.698 8.53701 25.049C8.43439 23.4692 8.33325 21.5252 8.33325 20C8.33325 18.4747 8.43439 16.5307 8.53701 14.9509Z" fill="white"/>
<path d="M17.5 16.6666V23.3333L24.1667 20L17.5 16.6666Z" fill="#222222"/>
<rect x="0.5" y="0.5" width="39" height="39" rx="19.5" stroke="white"/>
</svg>
